<?xml version="1.0" encoding="UTF-8"?>
<svg xmlns="http://www.w3.org/2000/svg" xmlns:xlink="http://www.w3.org/1999/xlink" version="1.1" width="512" height="512" x="0" y="0" viewBox="0 0 96 96" style="enable-background:new 0 0 512 512" xml:space="preserve" class="">
  <g>
    <path d="M81.282 4.31H43.424c-5.91 0-10.718 4.807-10.718 10.719v19.034H14.711C8.805 34.064 4 38.871 4 44.777v23.8c0 5.906 4.805 10.714 10.711 10.714h1.677v7.412c0 2.013 1.146 3.767 2.991 4.57.642.28 1.322.417 1.996.417a5.01 5.01 0 0 0 3.411-1.342l11.771-11.057H52.58c5.908 0 10.714-4.807 10.714-10.714V53.141l7.928 7.427a4.961 4.961 0 0 0 5.385.94 4.975 4.975 0 0 0 3-4.57v-7.391h1.676C87.192 49.548 92 44.74 92 38.829v-23.8C92 9.118 87.192 4.31 81.282 4.31zM52.58 73.881H35.487a2.71 2.71 0 0 0-1.852.734L21.798 85.736v-9.15a2.704 2.704 0 0 0-2.705-2.705h-4.382a5.307 5.307 0 0 1-5.301-5.304v-23.8a5.307 5.307 0 0 1 5.301-5.304h18.028c.336 5.611 4.993 10.075 10.685 10.075h14.459v19.029a5.307 5.307 0 0 1-5.303 5.304zm34.01-35.052a5.315 5.315 0 0 1-5.308 5.309h-4.381a2.704 2.704 0 0 0-2.705 2.705v9.103l-11.742-11.02-.056-.053-.007.008-.014-.013a2.702 2.702 0 0 0-1.85-.729H43.424a5.315 5.315 0 0 1-5.308-5.309v-.005h.02l-.02-23.794a5.315 5.315 0 0 1 5.308-5.309h37.858a5.315 5.315 0 0 1 5.308 5.309z" fill="#ffffff" opacity="1" data-original="#000000" class=""/>
    <path d="M73.172 18.648H51.534a2.704 2.704 0 1 0 0 5.41h21.639a2.704 2.704 0 1 0-.001-5.41zM73.172 29.467H51.534a2.704 2.704 0 1 0 0 5.41h21.639a2.704 2.704 0 1 0-.001-5.41zM22.852 54.038c-.324.106-.595.322-.865.539-.487.539-.812 1.247-.812 1.949s.324 1.405.812 1.891c.541.539 1.19.814 1.893.814.378 0 .758-.111 1.082-.217.325-.111.595-.328.865-.597.487-.486.812-1.189.812-1.891s-.325-1.411-.812-1.949c-.757-.702-1.947-.972-2.975-.539zM35.781 54.038c-1.028-.433-2.218-.164-2.975.539-.487.539-.757 1.247-.757 1.949s.27 1.405.757 1.891c.27.269.541.486.865.597.379.106.703.217 1.082.217.704 0 1.353-.275 1.894-.814.487-.486.812-1.189.812-1.891s-.325-1.411-.812-1.949c-.271-.216-.541-.433-.866-.539zM46.601 54.038c-.649-.275-1.407-.275-2.11 0-.324.106-.595.322-.865.539-.487.539-.812 1.247-.812 1.949s.324 1.405.812 1.891c.541.539 1.19.814 1.894.814.378 0 .757-.111 1.082-.217.325-.111.595-.328.866-.597.487-.486.757-1.189.757-1.891s-.271-1.411-.757-1.949c-.272-.216-.542-.433-.867-.539zM18.5 26.763h5.41a2.704 2.704 0 1 0 0-5.41H18.5a2.704 2.704 0 1 0 0 5.41zM78.006 70.04h-5.41a2.704 2.704 0 1 0 0 5.41h5.41a2.704 2.704 0 1 0 0-5.41z" fill="#ffffff" opacity="1" data-original="#000000" class=""/>
  </g>
</svg>
