<?xml version="1.0" encoding="UTF-8"?>
<svg xmlns="http://www.w3.org/2000/svg" xmlns:xlink="http://www.w3.org/1999/xlink" version="1.1" width="512" height="512" x="0" y="0" viewBox="0 0 512 512" style="enable-background:new 0 0 512 512" xml:space="preserve" class="">
  <g>
    <path d="M360.458 231.881A46.703 46.703 0 0 0 367 208v-56c0-25.916-21.084-47-47-47a46.71 46.71 0 0 0-23.881 6.542c-18.371-30.024-61.853-30.046-80.238 0-26.92-15.95-61.954-1.408-69.509 29.2C115.576 127.614 81 150.288 81 184v128c0 52.393 40 78.387 40 112v73c0 8.284 6.716 15 15 15h192c8.284 0 15-6.716 15-15v-57c0-19.193 7.593-29.823 17.206-43.281C370.89 381.761 383 364.807 383 336v-64c0-16.963-9.034-31.854-22.542-40.119zM320 135c9.374 0 17 7.626 17 17v56c0 9.374-7.626 17-17 17s-17-7.626-17-17v-56c0-9.374 7.626-17 17-17zm-81 1c0-9.374 7.626-17 17-17s17 7.626 17 17v72c0 9.374-7.626 17-17 17s-17-7.626-17-17zm-64 16c0-9.374 7.626-17 17-17s17 7.626 17 17v56c0 9.374-7.626 17-17 17s-17-7.626-17-17zm-64 32c0-9.374 7.626-17 17-17s17 7.626 17 17v24c0 9.374-7.626 17-17 17s-17-7.626-17-17zm242 152c0 19.193-7.593 29.823-17.206 43.281C325.11 394.239 313 411.193 313 440v42H151v-58c0-45.531-40-69.305-40-112v-60.195a46.845 46.845 0 0 0 49-9.425c18.048 16.81 45.911 16.848 64 0 .329.306.663.606 1 .903V272c0 22.073 15.297 40.643 35.847 45.663-8.648 9.994-16.272 22.978-19.555 39.396-1.625 8.123 3.644 16.025 11.767 17.65 8.123 1.622 16.026-3.644 17.65-11.768 6.253-31.266 38.603-44.907 38.862-45.015A15 15 0 0 0 304 289h-32c-9.374 0-17-7.626-17-17v-17h81c9.374 0 17 7.626 17 17zM256 63c8.284 0 15-6.716 15-15V15c0-8.284-6.716-15-15-15s-15 6.716-15 15v33c0 8.284 6.716 15 15 15zM171.519 64.32c4.61 6.915 13.929 8.743 20.801 4.16 6.893-4.595 8.756-13.908 4.161-20.801l-16-24c-4.595-6.894-13.909-8.757-20.801-4.16-6.893 4.595-8.756 13.908-4.161 20.801zM319.68 68.48c6.863 4.576 16.185 2.764 20.801-4.16l16-24c4.595-6.893 2.732-16.206-4.161-20.801-6.891-4.596-16.205-2.734-20.801 4.16l-16 24c-4.595 6.893-2.732 16.207 4.161 20.801zM101.394 106.606c5.858 5.858 15.355 5.858 21.213 0 5.858-5.857 5.858-15.355 0-21.213l-16-16c-5.857-5.857-15.355-5.857-21.213 0s-5.858 15.355 0 21.213zM426.607 69.394c-5.857-5.857-15.355-5.857-21.213 0l-16 16c-5.858 5.857-5.858 15.355 0 21.213s15.355 5.858 21.213 0l16-16c5.857-5.858 5.857-15.356 0-21.213z" fill="#ffffff" opacity="1" data-original="#000000"/>
  </g>
</svg>
